# xmcd
#
# Track frame offsets:
#	150
#	26895
#	57975
#	84835
#	110287
#	131412
#	144910
#	174760
#	195127
#	219377
#
# Disc length: 3210 seconds
#
# Revision: 0
# Processed by: cddbd v1.5PL3 Copyright (c) Steve Scherf et al.
# Submitted via: MusicManager 7.0.3.0 
#
DISCID=760c880a
DTITLE=Made In Brazil - Fogo Na Madeira 2
DYEAR=1074
DGENRE=blues
TTITLE0=Vou Te Virar De Ponta Cabeça
TTITLE1=Sexo, Timão and Rock'n'Roll
TTITLE2=Amanhã é Um Novo Dia
TTITLE3=Godzilla
TTITLE4=Um Beijo
TTITLE5=Mickey Mouse
TTITLE6=Deixa Sangrar
TTITLE7=Uma Banda Made In Brazil
TTITLE8=Gasolina
TTITLE9=Fiquei Com o Blues
EXTD=
EXTT0=
EXTT1=
EXTT2=
EXTT3=
EXTT4=
EXTT5=
EXTT6=
EXTT7=
EXTT8=
EXTT9=
PLAYORDER=
